<mxfile host="app.diagrams.net" agent="Mozilla/5.0 (Windows NT 10.0; Win64; x64) AppleWebKit/537.36 (KHTML, like Gecko) Chrome/134.0.0.0 Safari/537.36" version="26.1.1">
  <diagram name="Page-1" id="fiO1XcaWk8W0oTtzus2Q">
    <mxGraphModel dx="1434" dy="772" grid="1" gridSize="10" guides="1" tooltips="1" connect="1" arrows="1" fold="1" page="1" pageScale="1" pageWidth="827" pageHeight="1169" math="0" shadow="0">
      <root>
        <mxCell id="0" />
        <mxCell id="1" parent="0" />
        <mxCell id="qh9NZ0_jys3TYbjNlazW-21" value="Language" style="swimlane;fontStyle=1;align=center;verticalAlign=top;childLayout=stackLayout;horizontal=1;startSize=26;horizontalStack=0;resizeParent=1;resizeParentMax=0;resizeLast=0;collapsible=1;marginBottom=0;whiteSpace=wrap;html=1;" vertex="1" parent="1">
          <mxGeometry x="650" y="80" width="160" height="78" as="geometry" />
        </mxCell>
        <mxCell id="qh9NZ0_jys3TYbjNlazW-22" value="+ ID: &lt;span style=&quot;white-space: pre;&quot;&gt;&#x9;&lt;/span&gt;UniqueKey&lt;div&gt;+ Name: &lt;span style=&quot;white-space: pre;&quot;&gt;&#x9;&lt;/span&gt;Text&lt;/div&gt;" style="text;strokeColor=none;fillColor=none;align=left;verticalAlign=top;spacingLeft=4;spacingRight=4;overflow=hidden;rotatable=0;points=[[0,0.5],[1,0.5]];portConstraint=eastwest;whiteSpace=wrap;html=1;" vertex="1" parent="qh9NZ0_jys3TYbjNlazW-21">
          <mxGeometry y="26" width="160" height="44" as="geometry" />
        </mxCell>
        <mxCell id="qh9NZ0_jys3TYbjNlazW-23" value="" style="line;strokeWidth=1;fillColor=none;align=left;verticalAlign=middle;spacingTop=-1;spacingLeft=3;spacingRight=3;rotatable=0;labelPosition=right;points=[];portConstraint=eastwest;strokeColor=inherit;" vertex="1" parent="qh9NZ0_jys3TYbjNlazW-21">
          <mxGeometry y="70" width="160" height="8" as="geometry" />
        </mxCell>
        <mxCell id="qh9NZ0_jys3TYbjNlazW-58" style="edgeStyle=orthogonalEdgeStyle;rounded=0;orthogonalLoop=1;jettySize=auto;html=1;exitX=0.5;exitY=1;exitDx=0;exitDy=0;entryX=0.5;entryY=0;entryDx=0;entryDy=0;endArrow=none;startFill=0;" edge="1" parent="1" source="qh9NZ0_jys3TYbjNlazW-25" target="qh9NZ0_jys3TYbjNlazW-29">
          <mxGeometry relative="1" as="geometry" />
        </mxCell>
        <mxCell id="qh9NZ0_jys3TYbjNlazW-25" value="Experience" style="swimlane;fontStyle=1;align=center;verticalAlign=top;childLayout=stackLayout;horizontal=1;startSize=26;horizontalStack=0;resizeParent=1;resizeParentMax=0;resizeLast=0;collapsible=1;marginBottom=0;whiteSpace=wrap;html=1;" vertex="1" parent="1">
          <mxGeometry x="110" y="80" width="180" height="178" as="geometry" />
        </mxCell>
        <mxCell id="qh9NZ0_jys3TYbjNlazW-26" value="+ ID: &lt;span style=&quot;white-space: pre;&quot;&gt;&#x9;&lt;/span&gt;&lt;span style=&quot;white-space: pre;&quot;&gt;&#x9;&lt;span style=&quot;white-space: pre;&quot;&gt;&#x9;&lt;/span&gt;&lt;/span&gt;UniqueKey&lt;div&gt;+ name: &lt;span style=&quot;white-space: pre;&quot;&gt;&#x9;&lt;/span&gt;&lt;span style=&quot;white-space: pre;&quot;&gt;&#x9;&lt;span style=&quot;white-space: pre;&quot;&gt;&#x9;&lt;/span&gt;&lt;/span&gt;Text&lt;/div&gt;&lt;div&gt;+ date:&lt;span style=&quot;white-space: pre;&quot;&gt;&#x9;&lt;/span&gt;&lt;span style=&quot;white-space: pre;&quot;&gt;&#x9;&lt;span style=&quot;white-space: pre;&quot;&gt;&#x9;&lt;/span&gt;&lt;/span&gt;Date&lt;/div&gt;&lt;div&gt;+ establishment:&lt;span style=&quot;white-space: pre;&quot;&gt;&#x9;&lt;/span&gt;Text&lt;/div&gt;&lt;div&gt;+ city:&lt;span style=&quot;white-space: pre;&quot;&gt;&#x9;&lt;/span&gt;&lt;span style=&quot;white-space: pre;&quot;&gt;&#x9;&lt;span style=&quot;white-space: pre;&quot;&gt;&#x9;&lt;/span&gt;&lt;/span&gt;Text&lt;/div&gt;&lt;div&gt;+ country:&lt;span style=&quot;white-space: pre;&quot;&gt;&#x9;&lt;span style=&quot;white-space: pre;&quot;&gt;&#x9;&lt;/span&gt;&lt;/span&gt;Text&lt;/div&gt;&lt;div&gt;+ mission:&lt;span style=&quot;white-space: pre;&quot;&gt;&#x9;&lt;span style=&quot;white-space: pre;&quot;&gt;&#x9;&lt;/span&gt;&lt;/span&gt;Text&lt;/div&gt;&lt;div&gt;+ description:&lt;span style=&quot;white-space: pre;&quot;&gt;&#x9;&lt;span style=&quot;white-space: pre;&quot;&gt;&#x9;&lt;/span&gt;&lt;/span&gt;Text&lt;/div&gt;&lt;div&gt;+ isFormation:&lt;span style=&quot;white-space: pre;&quot;&gt;&#x9;&lt;/span&gt;&lt;span style=&quot;white-space: pre;&quot;&gt;&#x9;&lt;/span&gt;Bool&lt;/div&gt;" style="text;strokeColor=none;fillColor=none;align=left;verticalAlign=top;spacingLeft=4;spacingRight=4;overflow=hidden;rotatable=0;points=[[0,0.5],[1,0.5]];portConstraint=eastwest;whiteSpace=wrap;html=1;" vertex="1" parent="qh9NZ0_jys3TYbjNlazW-25">
          <mxGeometry y="26" width="180" height="144" as="geometry" />
        </mxCell>
        <mxCell id="qh9NZ0_jys3TYbjNlazW-27" value="" style="line;strokeWidth=1;fillColor=none;align=left;verticalAlign=middle;spacingTop=-1;spacingLeft=3;spacingRight=3;rotatable=0;labelPosition=right;points=[];portConstraint=eastwest;strokeColor=inherit;" vertex="1" parent="qh9NZ0_jys3TYbjNlazW-25">
          <mxGeometry y="170" width="180" height="8" as="geometry" />
        </mxCell>
        <mxCell id="qh9NZ0_jys3TYbjNlazW-29" value="City" style="swimlane;fontStyle=1;align=center;verticalAlign=top;childLayout=stackLayout;horizontal=1;startSize=26;horizontalStack=0;resizeParent=1;resizeParentMax=0;resizeLast=0;collapsible=1;marginBottom=0;whiteSpace=wrap;html=1;" vertex="1" parent="1">
          <mxGeometry x="120" y="322" width="160" height="78" as="geometry" />
        </mxCell>
        <mxCell id="qh9NZ0_jys3TYbjNlazW-30" value="+ ID: &lt;span style=&quot;white-space: pre;&quot;&gt;&#x9;&lt;/span&gt;UniqueKey&lt;div&gt;+ Name: &lt;span style=&quot;white-space: pre;&quot;&gt;&#x9;&lt;/span&gt;Text&lt;/div&gt;" style="text;strokeColor=none;fillColor=none;align=left;verticalAlign=top;spacingLeft=4;spacingRight=4;overflow=hidden;rotatable=0;points=[[0,0.5],[1,0.5]];portConstraint=eastwest;whiteSpace=wrap;html=1;" vertex="1" parent="qh9NZ0_jys3TYbjNlazW-29">
          <mxGeometry y="26" width="160" height="44" as="geometry" />
        </mxCell>
        <mxCell id="qh9NZ0_jys3TYbjNlazW-31" value="" style="line;strokeWidth=1;fillColor=none;align=left;verticalAlign=middle;spacingTop=-1;spacingLeft=3;spacingRight=3;rotatable=0;labelPosition=right;points=[];portConstraint=eastwest;strokeColor=inherit;" vertex="1" parent="qh9NZ0_jys3TYbjNlazW-29">
          <mxGeometry y="70" width="160" height="8" as="geometry" />
        </mxCell>
        <mxCell id="qh9NZ0_jys3TYbjNlazW-54" style="edgeStyle=orthogonalEdgeStyle;rounded=0;orthogonalLoop=1;jettySize=auto;html=1;exitX=0.5;exitY=0;exitDx=0;exitDy=0;" edge="1" parent="1" source="qh9NZ0_jys3TYbjNlazW-33">
          <mxGeometry relative="1" as="geometry">
            <mxPoint x="460" y="90" as="targetPoint" />
          </mxGeometry>
        </mxCell>
        <mxCell id="qh9NZ0_jys3TYbjNlazW-33" value="Person" style="swimlane;fontStyle=1;align=center;verticalAlign=top;childLayout=stackLayout;horizontal=1;startSize=26;horizontalStack=0;resizeParent=1;resizeParentMax=0;resizeLast=0;collapsible=1;marginBottom=0;whiteSpace=wrap;html=1;" vertex="1" parent="1">
          <mxGeometry x="380" y="80" width="180" height="280" as="geometry" />
        </mxCell>
        <mxCell id="qh9NZ0_jys3TYbjNlazW-34" value="+ ID: &lt;span style=&quot;white-space: pre;&quot;&gt;&#x9;&lt;/span&gt;&lt;span style=&quot;white-space: pre;&quot;&gt;&#x9;&lt;/span&gt;UniqKey&lt;div&gt;+ firstName:&lt;span style=&quot;white-space: pre;&quot;&gt;&#x9;&lt;/span&gt;Text&lt;/div&gt;&lt;div&gt;+name:&lt;span style=&quot;white-space: pre;&quot;&gt;&#x9;&lt;span style=&quot;white-space: pre;&quot;&gt;&#x9;&lt;/span&gt;&lt;/span&gt;Text&lt;/div&gt;&lt;div&gt;+birthday:&lt;span style=&quot;white-space: pre;&quot;&gt;&#x9;&lt;/span&gt;Date&lt;/div&gt;&lt;div&gt;+ mail:&lt;span style=&quot;white-space: pre;&quot;&gt;&#x9;&lt;/span&gt;&lt;span style=&quot;white-space: pre;&quot;&gt;&#x9;&lt;/span&gt;Text&lt;/div&gt;&lt;div&gt;+ tel:&lt;span style=&quot;white-space: pre;&quot;&gt;&#x9;&lt;/span&gt;&lt;span style=&quot;white-space: pre;&quot;&gt;&#x9;&lt;/span&gt;Numeric&lt;/div&gt;&lt;div&gt;+ address:&lt;span style=&quot;white-space: pre;&quot;&gt;&#x9;&lt;/span&gt;Text&lt;/div&gt;&lt;div&gt;+ nationality:&lt;span style=&quot;white-space: pre;&quot;&gt;&#x9;&lt;/span&gt;Text&lt;/div&gt;&lt;div&gt;+ img:&lt;span style=&quot;white-space: pre;&quot;&gt;&#x9;&lt;/span&gt;&lt;span style=&quot;white-space: pre;&quot;&gt;&#x9;&lt;/span&gt;Blob&lt;/div&gt;&lt;div&gt;+ title:&lt;span style=&quot;white-space: pre;&quot;&gt;&#x9;&lt;/span&gt;&lt;span style=&quot;white-space: pre;&quot;&gt;&#x9;&lt;/span&gt;Text&lt;/div&gt;&lt;div&gt;+ subTitle:&lt;span style=&quot;white-space: pre;&quot;&gt;&#x9;&lt;/span&gt;Text&lt;/div&gt;&lt;div&gt;+ values:&lt;span style=&quot;white-space: pre;&quot;&gt;&#x9;&lt;/span&gt;&lt;span style=&quot;white-space: pre;&quot;&gt;&#x9;&lt;/span&gt;Text&lt;/div&gt;" style="text;strokeColor=none;fillColor=none;align=left;verticalAlign=top;spacingLeft=4;spacingRight=4;overflow=hidden;rotatable=0;points=[[0,0.5],[1,0.5]];portConstraint=eastwest;whiteSpace=wrap;html=1;" vertex="1" parent="qh9NZ0_jys3TYbjNlazW-33">
          <mxGeometry y="26" width="180" height="194" as="geometry" />
        </mxCell>
        <mxCell id="qh9NZ0_jys3TYbjNlazW-35" value="" style="line;strokeWidth=1;fillColor=none;align=left;verticalAlign=middle;spacingTop=-1;spacingLeft=3;spacingRight=3;rotatable=0;labelPosition=right;points=[];portConstraint=eastwest;strokeColor=inherit;" vertex="1" parent="qh9NZ0_jys3TYbjNlazW-33">
          <mxGeometry y="220" width="180" height="8" as="geometry" />
        </mxCell>
        <mxCell id="qh9NZ0_jys3TYbjNlazW-36" value="+ getAgeFromBirthday(Date): Numeric" style="text;strokeColor=none;fillColor=none;align=left;verticalAlign=top;spacingLeft=4;spacingRight=4;overflow=hidden;rotatable=0;points=[[0,0.5],[1,0.5]];portConstraint=eastwest;whiteSpace=wrap;html=1;" vertex="1" parent="qh9NZ0_jys3TYbjNlazW-33">
          <mxGeometry y="228" width="180" height="52" as="geometry" />
        </mxCell>
        <mxCell id="qh9NZ0_jys3TYbjNlazW-41" value="Hobby" style="swimlane;fontStyle=1;align=center;verticalAlign=top;childLayout=stackLayout;horizontal=1;startSize=26;horizontalStack=0;resizeParent=1;resizeParentMax=0;resizeLast=0;collapsible=1;marginBottom=0;whiteSpace=wrap;html=1;" vertex="1" parent="1">
          <mxGeometry x="640" y="222" width="160" height="88" as="geometry" />
        </mxCell>
        <mxCell id="qh9NZ0_jys3TYbjNlazW-42" value="+ ID: UniqueKey&lt;div&gt;+ name: Text&lt;/div&gt;&lt;div&gt;+ description: Text&lt;/div&gt;" style="text;strokeColor=none;fillColor=none;align=left;verticalAlign=top;spacingLeft=4;spacingRight=4;overflow=hidden;rotatable=0;points=[[0,0.5],[1,0.5]];portConstraint=eastwest;whiteSpace=wrap;html=1;" vertex="1" parent="qh9NZ0_jys3TYbjNlazW-41">
          <mxGeometry y="26" width="160" height="54" as="geometry" />
        </mxCell>
        <mxCell id="qh9NZ0_jys3TYbjNlazW-43" value="" style="line;strokeWidth=1;fillColor=none;align=left;verticalAlign=middle;spacingTop=-1;spacingLeft=3;spacingRight=3;rotatable=0;labelPosition=right;points=[];portConstraint=eastwest;strokeColor=inherit;" vertex="1" parent="qh9NZ0_jys3TYbjNlazW-41">
          <mxGeometry y="80" width="160" height="8" as="geometry" />
        </mxCell>
        <mxCell id="qh9NZ0_jys3TYbjNlazW-49" value="Country" style="swimlane;fontStyle=1;align=center;verticalAlign=top;childLayout=stackLayout;horizontal=1;startSize=26;horizontalStack=0;resizeParent=1;resizeParentMax=0;resizeLast=0;collapsible=1;marginBottom=0;whiteSpace=wrap;html=1;" vertex="1" parent="1">
          <mxGeometry x="110" y="460" width="160" height="78" as="geometry" />
        </mxCell>
        <mxCell id="qh9NZ0_jys3TYbjNlazW-50" value="+ ID: &lt;span style=&quot;white-space: pre;&quot;&gt;&#x9;&lt;/span&gt;UniqueKey&lt;div&gt;+ Name: &lt;span style=&quot;white-space: pre;&quot;&gt;&#x9;&lt;/span&gt;Text&lt;/div&gt;" style="text;strokeColor=none;fillColor=none;align=left;verticalAlign=top;spacingLeft=4;spacingRight=4;overflow=hidden;rotatable=0;points=[[0,0.5],[1,0.5]];portConstraint=eastwest;whiteSpace=wrap;html=1;" vertex="1" parent="qh9NZ0_jys3TYbjNlazW-49">
          <mxGeometry y="26" width="160" height="44" as="geometry" />
        </mxCell>
        <mxCell id="qh9NZ0_jys3TYbjNlazW-51" value="" style="line;strokeWidth=1;fillColor=none;align=left;verticalAlign=middle;spacingTop=-1;spacingLeft=3;spacingRight=3;rotatable=0;labelPosition=right;points=[];portConstraint=eastwest;strokeColor=inherit;" vertex="1" parent="qh9NZ0_jys3TYbjNlazW-49">
          <mxGeometry y="70" width="160" height="8" as="geometry" />
        </mxCell>
        <mxCell id="qh9NZ0_jys3TYbjNlazW-55" style="edgeStyle=orthogonalEdgeStyle;rounded=0;orthogonalLoop=1;jettySize=auto;html=1;exitX=0;exitY=0.5;exitDx=0;exitDy=0;entryX=1;entryY=0.5;entryDx=0;entryDy=0;endArrow=none;startFill=0;" edge="1" parent="1" source="qh9NZ0_jys3TYbjNlazW-34" target="qh9NZ0_jys3TYbjNlazW-25">
          <mxGeometry relative="1" as="geometry" />
        </mxCell>
        <mxCell id="qh9NZ0_jys3TYbjNlazW-56" style="edgeStyle=orthogonalEdgeStyle;rounded=0;orthogonalLoop=1;jettySize=auto;html=1;entryX=0;entryY=0.5;entryDx=0;entryDy=0;endArrow=none;startFill=0;" edge="1" parent="1" target="qh9NZ0_jys3TYbjNlazW-22">
          <mxGeometry relative="1" as="geometry">
            <mxPoint x="560" y="200" as="sourcePoint" />
            <Array as="points">
              <mxPoint x="590" y="200" />
              <mxPoint x="590" y="128" />
            </Array>
          </mxGeometry>
        </mxCell>
        <mxCell id="qh9NZ0_jys3TYbjNlazW-57" style="edgeStyle=orthogonalEdgeStyle;rounded=0;orthogonalLoop=1;jettySize=auto;html=1;entryX=0;entryY=0.5;entryDx=0;entryDy=0;endArrow=none;startFill=0;" edge="1" parent="1" source="qh9NZ0_jys3TYbjNlazW-34" target="qh9NZ0_jys3TYbjNlazW-42">
          <mxGeometry relative="1" as="geometry">
            <Array as="points">
              <mxPoint x="595" y="220" />
              <mxPoint x="595" y="253" />
            </Array>
          </mxGeometry>
        </mxCell>
        <mxCell id="qh9NZ0_jys3TYbjNlazW-59" style="rounded=0;orthogonalLoop=1;jettySize=auto;html=1;exitX=0.5;exitY=1;exitDx=0;exitDy=0;entryX=0.563;entryY=0.064;entryDx=0;entryDy=0;entryPerimeter=0;endArrow=none;startFill=0;" edge="1" parent="1" source="qh9NZ0_jys3TYbjNlazW-29" target="qh9NZ0_jys3TYbjNlazW-49">
          <mxGeometry relative="1" as="geometry" />
        </mxCell>
        <mxCell id="qh9NZ0_jys3TYbjNlazW-60" style="rounded=0;orthogonalLoop=1;jettySize=auto;html=1;exitX=-0.011;exitY=0.928;exitDx=0;exitDy=0;exitPerimeter=0;entryX=1;entryY=0.5;entryDx=0;entryDy=0;edgeStyle=orthogonalEdgeStyle;endArrow=none;startFill=0;" edge="1" parent="1" source="qh9NZ0_jys3TYbjNlazW-34" target="qh9NZ0_jys3TYbjNlazW-30">
          <mxGeometry relative="1" as="geometry">
            <mxPoint x="400" y="286.5" as="sourcePoint" />
            <mxPoint x="300" y="411.5" as="targetPoint" />
            <Array as="points">
              <mxPoint x="330" y="286" />
              <mxPoint x="330" y="358" />
            </Array>
          </mxGeometry>
        </mxCell>
        <mxCell id="qh9NZ0_jys3TYbjNlazW-64" value="Lives" style="text;html=1;align=center;verticalAlign=middle;resizable=0;points=[];autosize=1;strokeColor=none;fillColor=none;" vertex="1" parent="1">
          <mxGeometry x="330" y="310" width="50" height="30" as="geometry" />
        </mxCell>
        <mxCell id="qh9NZ0_jys3TYbjNlazW-65" value="has" style="text;html=1;align=center;verticalAlign=middle;resizable=0;points=[];autosize=1;strokeColor=none;fillColor=none;" vertex="1" parent="1">
          <mxGeometry x="310" y="138" width="40" height="30" as="geometry" />
        </mxCell>
        <mxCell id="qh9NZ0_jys3TYbjNlazW-66" value="speak" style="text;html=1;align=center;verticalAlign=middle;resizable=0;points=[];autosize=1;strokeColor=none;fillColor=none;" vertex="1" parent="1">
          <mxGeometry x="580" y="150" width="60" height="30" as="geometry" />
        </mxCell>
        <mxCell id="qh9NZ0_jys3TYbjNlazW-67" value="has" style="text;html=1;align=center;verticalAlign=middle;resizable=0;points=[];autosize=1;strokeColor=none;fillColor=none;" vertex="1" parent="1">
          <mxGeometry x="590" y="210" width="40" height="30" as="geometry" />
        </mxCell>
        <mxCell id="qh9NZ0_jys3TYbjNlazW-68" value="located" style="text;html=1;align=center;verticalAlign=middle;resizable=0;points=[];autosize=1;strokeColor=none;fillColor=none;" vertex="1" parent="1">
          <mxGeometry x="200" y="420" width="60" height="30" as="geometry" />
        </mxCell>
        <mxCell id="qh9NZ0_jys3TYbjNlazW-69" value="located" style="text;html=1;align=center;verticalAlign=middle;resizable=0;points=[];autosize=1;strokeColor=none;fillColor=none;" vertex="1" parent="1">
          <mxGeometry x="200" y="280" width="60" height="30" as="geometry" />
        </mxCell>
        <mxCell id="qh9NZ0_jys3TYbjNlazW-70" value="1,*" style="text;html=1;align=center;verticalAlign=middle;resizable=0;points=[];autosize=1;strokeColor=none;fillColor=none;" vertex="1" parent="1">
          <mxGeometry x="610" y="98" width="40" height="30" as="geometry" />
        </mxCell>
        <mxCell id="qh9NZ0_jys3TYbjNlazW-71" value="1,*" style="text;html=1;align=center;verticalAlign=middle;resizable=0;points=[];autosize=1;strokeColor=none;fillColor=none;" vertex="1" parent="1">
          <mxGeometry x="550" y="168" width="40" height="30" as="geometry" />
        </mxCell>
        <mxCell id="qh9NZ0_jys3TYbjNlazW-72" value="1,*" style="text;html=1;align=center;verticalAlign=middle;resizable=0;points=[];autosize=1;strokeColor=none;fillColor=none;" vertex="1" parent="1">
          <mxGeometry x="549" y="220" width="40" height="30" as="geometry" />
        </mxCell>
        <mxCell id="qh9NZ0_jys3TYbjNlazW-73" value="1,*" style="text;html=1;align=center;verticalAlign=middle;resizable=0;points=[];autosize=1;strokeColor=none;fillColor=none;" vertex="1" parent="1">
          <mxGeometry x="610" y="258" width="40" height="30" as="geometry" />
        </mxCell>
        <mxCell id="qh9NZ0_jys3TYbjNlazW-74" value="1,1" style="text;html=1;align=center;verticalAlign=middle;resizable=0;points=[];autosize=1;strokeColor=none;fillColor=none;" vertex="1" parent="1">
          <mxGeometry x="347" y="198" width="40" height="30" as="geometry" />
        </mxCell>
        <mxCell id="qh9NZ0_jys3TYbjNlazW-75" value="1,*" style="text;html=1;align=center;verticalAlign=middle;resizable=0;points=[];autosize=1;strokeColor=none;fillColor=none;" vertex="1" parent="1">
          <mxGeometry x="280" y="138" width="40" height="30" as="geometry" />
        </mxCell>
        <mxCell id="qh9NZ0_jys3TYbjNlazW-76" value="1,*" style="text;html=1;align=center;verticalAlign=middle;resizable=0;points=[];autosize=1;strokeColor=none;fillColor=none;" vertex="1" parent="1">
          <mxGeometry x="340" y="258" width="40" height="30" as="geometry" />
        </mxCell>
        <mxCell id="qh9NZ0_jys3TYbjNlazW-77" value="1,1" style="text;html=1;align=center;verticalAlign=middle;resizable=0;points=[];autosize=1;strokeColor=none;fillColor=none;" vertex="1" parent="1">
          <mxGeometry x="273" y="358" width="40" height="30" as="geometry" />
        </mxCell>
        <mxCell id="qh9NZ0_jys3TYbjNlazW-79" value="1,*" style="text;html=1;align=center;verticalAlign=middle;resizable=0;points=[];autosize=1;strokeColor=none;fillColor=none;" vertex="1" parent="1">
          <mxGeometry x="164" y="258" width="40" height="30" as="geometry" />
        </mxCell>
        <mxCell id="qh9NZ0_jys3TYbjNlazW-80" value="1,1" style="text;html=1;align=center;verticalAlign=middle;resizable=0;points=[];autosize=1;strokeColor=none;fillColor=none;" vertex="1" parent="1">
          <mxGeometry x="165" y="298" width="40" height="30" as="geometry" />
        </mxCell>
        <mxCell id="qh9NZ0_jys3TYbjNlazW-81" value="1,*" style="text;html=1;align=center;verticalAlign=middle;resizable=0;points=[];autosize=1;strokeColor=none;fillColor=none;" vertex="1" parent="1">
          <mxGeometry x="170" y="395" width="40" height="30" as="geometry" />
        </mxCell>
        <mxCell id="qh9NZ0_jys3TYbjNlazW-82" value="1,1" style="text;html=1;align=center;verticalAlign=middle;resizable=0;points=[];autosize=1;strokeColor=none;fillColor=none;" vertex="1" parent="1">
          <mxGeometry x="165" y="436" width="40" height="30" as="geometry" />
        </mxCell>
      </root>
    </mxGraphModel>
  </diagram>
</mxfile>
